<svg width="200" height="200" viewBox="0 0 200 200" xmlns="http://www.w3.org/2000/svg">
  <!-- Orange teardrop (left/outer) - warm orange #FF6B35 -->
  <path d="M 50 30 
           Q 30 50 35 80 
           Q 40 110 50 140 
           Q 60 160 80 170 
           Q 100 175 120 170 
           Q 140 160 150 140 
           Q 160 110 165 80 
           Q 170 50 150 30 
           Q 130 20 100 25 
           Q 70 20 50 30 Z" 
        fill="#FF6B35" 
        stroke="none"/>
  
  <!-- Green teardrop (right/inner) - vibrant green #4ECDC4 -->
  <path d="M 100 40 
           Q 120 45 130 65 
           Q 135 85 132 110 
           Q 130 130 120 145 
           Q 110 155 100 160 
           Q 90 155 80 145 
           Q 70 130 68 110 
           Q 65 85 70 65 
           Q 80 45 100 40 Z" 
        fill="#4ECDC4" 
        stroke="none"/>
</svg>
